# xmcd CD database file
#
# Track frame offsets:
#	150
#	13684
#	26635
#	44363
#	66200
#	79299
#	99821
#	123308
#	138156
#	160329
#	176691
#	190857
#	216453
#
# Disc length: 3310 seconds
#
# Revision: 0
# Processed by: cddbd v1.4PL0 Copyright (c) Steve Scherf et al.
# Submitted via: CDex 1.50Beta7
#
DISCID=b00cec0d
DTITLE=King Johnson - Luck So Strange
DYEAR=2001
DGENRE=Blues
TTITLE0=Mountain
TTITLE1=19-20-21
TTITLE2=Slow Down
TTITLE3=Ralph
TTITLE4=Dead Dog
TTITLE5=Luckiest Man
TTITLE6=Another 2nd Chance
TTITLE7=Suits Me Fine
TTITLE8=Shadow Of Wood
TTITLE9=Hey Yeah
TTITLE10=Ain't Next To You
TTITLE11=Wil E.
TTITLE12=Luck So Strange
EXTD=YEAR: 2001
EXTT0=
EXTT1=
EXTT2=
EXTT3=
EXTT4=
EXTT5=
EXTT6=
EXTT7=
EXTT8=
EXTT9=
EXTT10=
EXTT11=
EXTT12=
PLAYORDER=
